ffmpeg started on 2016-12-03 at 19:39:05
Report written to "Output/x264/results/ffmpeg/crowd_run_2160p50ultrafast1000k.log"
Command line:
Tools/ffmpeg/ffmpeg -benchmark -y -i Input/y4m/crowd_run_2160p50.y4m -c:v libx264 -preset ultrafast -b:v 1000k -an Output/x264/encoded/crowd_run_2160p50ultrafast1000k.mkv
ffmpeg version N-82227-gdb23fde Copyright (c) 2000-2016 the FFmpeg developers
  built with gcc 5.4.0 (Ubuntu 5.4.0-6ubuntu1~16.04.2) 20160609
  configuration: --prefix=/home/jaroslav/ffmpeg_build --pkg-config-flags=--static --extra-cflags=-I/home/jaroslav/ffmpeg_build/include --extra-ldflags=-L/home/jaroslav/ffmpeg_build/lib --bindir=/home/jaroslav/bin --enable-gpl --enable-libass --enable-libfdk-aac --enable-libfreetype --enable-libmp3lame --enable-libopus --enable-libtheora --enable-libvorbis --enable-libvpx --enable-libx264 --enable-libx265 --enable-nvenc --enable-libmfx --enable-libxvid --enable-libgsm --enable-libopencore-amrnb --enable-version3 --enable-nonfree
  libavutil      55. 35.100 / 55. 35.100
  libavcodec     57. 66.101 / 57. 66.101
  libavformat    57. 57.100 / 57. 57.100
  libavdevice    57.  2.100 / 57.  2.100
  libavfilter     6. 66.100 /  6. 66.100
  libswscale      4.  3.100 /  4.  3.100
  libswresample   2.  4.100 /  2.  4.100
  libpostproc    54.  2.100 / 54.  2.100
Input #0, yuv4mpegpipe, from 'Input/y4m/crowd_run_2160p50.y4m':
  Duration: 00:00:10.00, start: 0.000000, bitrate: 4976642 kb/s
    Stream #0:0: Video: rawvideo (I420 / 0x30323449), yuv420p(progressive), 3840x2160, SAR 1:1 DAR 16:9, 50 fps, 50 tbr, 50 tbn, 50 tbc
[libx264 @ 0x3a861c0] using SAR=1/1
[libx264 @ 0x3a861c0] using cpu capabilities: MMX2 SSE2Fast SSSE3 SSE4.2 AVX FMA3 AVX2 LZCNT BMI2
[libx264 @ 0x3a861c0] profile Constrained Baseline, level 5.2
[libx264 @ 0x3a861c0] 264 - core 148 - H.264/MPEG-4 AVC codec - Copyleft 2003-2016 - http://www.videolan.org/x264.html - options: cabac=0 ref=1 deblock=0:0:0 analyse=0:0 me=dia subme=0 psy=1 psy_rd=1.00:0.00 mixed_ref=0 me_range=16 chroma_me=1 trellis=0 8x8dct=0 cqm=0 deadzone=21,11 fast_pskip=1 chroma_qp_offset=0 threads=6 lookahead_threads=1 sliced_threads=0 nr=0 decimate=1 interlaced=0 bluray_compat=0 constrained_intra=0 bframes=0 weightp=0 keyint=250 keyint_min=25 scenecut=0 intra_refresh=0 rc=abr mbtree=0 bitrate=1000 ratetol=1.0 qcomp=0.60 qpmin=0 qpmax=69 qpstep=4 ip_ratio=1.40 aq=0
Output #0, matroska, to 'Output/x264/encoded/crowd_run_2160p50ultrafast1000k.mkv':
  Metadata:
    encoder         : Lavf57.57.100
    Stream #0:0: Video: h264 (libx264) (H264 / 0x34363248), yuv420p, 3840x2160 [SAR 1:1 DAR 16:9], q=-1--1, 1000 kb/s, 50 fps, 1k tbn, 50 tbc
    Metadata:
      encoder         : Lavc57.66.101 libx264
    Side data:
      cpb: bitrate max/min/avg: 0/0/1000000 buffer size: 0 vbv_delay: -1
Stream mapping:
  Stream #0:0 -> #0:0 (rawvideo (native) -> h264 (libx264))
Press [q] to stop, [?] for help
frame=   21 fps=0.0 q=69.0 size=       1kB time=00:00:00.26 bitrate=  22.4kbits/s speed= 0.5x    frame=   25 fps= 19 q=69.0 size=       1kB time=00:00:00.34 bitrate=  17.2kbits/s speed=0.253x    frame=   42 fps= 21 q=67.0 size=       1kB time=00:00:00.68 bitrate=   8.6kbits/s speed=0.344x    frame=   55 fps= 22 q=66.0 size=       1kB time=00:00:00.94 bitrate=   6.2kbits/s speed=0.377x    frame=   74 fps= 25 q=66.0 size=       1kB time=00:00:01.32 bitrate=   4.4kbits/s speed=0.441x    frame=   93 fps= 27 q=66.0 size=       1kB time=00:00:01.70 bitrate=   3.4kbits/s speed=0.486x    frame=  112 fps= 28 q=66.0 size=       1kB time=00:00:02.08 bitrate=   2.8kbits/s speed=0.519x    frame=  127 fps= 27 q=66.0 size=       1kB time=00:00:02.38 bitrate=   2.5kbits/s speed=0.502x    frame=  146 fps= 28 q=66.0 size=       1kB time=00:00:02.76 bitrate=   2.1kbits/s speed=0.525x    frame=  165 fps= 29 q=66.0 size=       1kB time=00:00:03.14 bitrate=   1.9kbits/s speed=0.544x    frame=  184 fps= 29 q=66.0 size=       1kB time=00:00:03.52 bitrate=   1.7kbits/s speed=0.559x    frame=  202 fps= 30 q=66.0 size=       1kB time=00:00:03.88 bitrate=   1.5kbits/s speed=0.571x    frame=  221 fps= 30 q=66.0 size=       1kB time=00:00:04.26 bitrate=   1.4kbits/s speed=0.582x    frame=  240 fps= 31 q=66.0 size=       1kB time=00:00:04.64 bitrate=   1.3kbits/s speed=0.593x    frame=  259 fps= 31 q=67.0 size=     630kB time=00:00:05.02 bitrate=1028.0kbits/s speed=0.602x    frame=  278 fps= 31 q=67.0 size=     630kB time=00:00:05.40 bitrate= 955.7kbits/s speed=0.611x    frame=  297 fps= 32 q=67.0 size=     630kB time=00:00:05.78 bitrate= 892.9kbits/s speed=0.618x    frame=  316 fps= 32 q=67.0 size=     630kB time=00:00:06.16 bitrate= 837.8kbits/s speed=0.625x    frame=  335 fps= 32 q=67.0 size=     630kB time=00:00:06.54 bitrate= 789.1kbits/s speed=0.631x    frame=  354 fps= 33 q=66.0 size=     630kB time=00:00:06.92 bitrate= 745.8kbits/s speed=0.637x    frame=  373 fps= 33 q=66.0 size=     630kB time=00:00:07.30 bitrate= 707.0kbits/s speed=0.642x    frame=  392 fps= 33 q=67.0 size=     630kB time=00:00:07.68 bitrate= 672.0kbits/s speed=0.647x    frame=  412 fps= 33 q=67.0 size=     630kB time=00:00:08.08 bitrate= 638.8kbits/s speed=0.652x    frame=  432 fps= 33 q=67.0 size=     630kB time=00:00:08.48 bitrate= 608.6kbits/s speed=0.656x    frame=  452 fps= 34 q=67.0 size=     630kB time=00:00:08.88 bitrate= 581.2kbits/s speed=0.66x    frame=  472 fps= 34 q=67.0 size=     630kB time=00:00:09.28 bitrate= 556.2kbits/s speed=0.664x    frame=  492 fps= 34 q=67.0 size=     630kB time=00:00:09.68 bitrate= 533.2kbits/s speed=0.668x    frame=  500 fps= 34 q=-1.0 Lsize=    1271kB time=00:00:09.98 bitrate=1043.3kbits/s speed=0.675x    
video:1267kB audio:0kB subtitle:0kB other streams:0kB global headers:0kB muxing overhead: 0.331602%
bench: utime=15.316s
bench: maxrss=381392kB
[libx264 @ 0x3a861c0] frame I:2     Avg QP:51.00  size: 48415
[libx264 @ 0x3a861c0] frame P:498   Avg QP:51.00  size:  2409
[libx264 @ 0x3a861c0] mb I  I16..4: 100.0%  0.0%  0.0%
[libx264 @ 0x3a861c0] mb P  I16..4:  1.0%  0.0%  0.0%  P16..4:  1.7%  0.0%  0.0%  0.0%  0.0%    skip:97.2%
[libx264 @ 0x3a861c0] final ratefactor: 59.75
[libx264 @ 0x3a861c0] coded y,uvDC,uvAC intra: 0.5% 10.6% 0.0% inter: 0.1% 0.1% 0.0%
[libx264 @ 0x3a861c0] i16 v,h,dc,p: 71% 20%  7%  2%
[libx264 @ 0x3a861c0] i8c dc,h,v,p: 100%  0%  0%  0%
[libx264 @ 0x3a861c0] kb/s:1037.39
